<svg width="60" height="59" viewBox="0 0 60 59" fill="none" xmlns="http://www.w3.org/2000/svg">
<rect x="10" width="40.6665" height="40.6665" fill="white"/>
<path d="M19.7643 23.1878C19.8672 22.6736 20.3186 22.3035 20.843 22.3035H39.8234C40.3477 22.3035 40.7992 22.6736 40.902 23.1878L42.8845 33.1001C43.0206 33.7807 42.5 34.4158 41.8059 34.4158H18.8605C18.1664 34.4158 17.6457 33.7807 17.7819 33.1001L19.7643 23.1878Z" fill="white" stroke="#1A8BD7" stroke-width="1.8"/>
<path d="M19.8021 14.0659C19.8021 15.9838 20.4095 17.7536 21.4499 19.2381C21.5234 19.3981 21.6206 19.5534 21.7431 19.7002L28.6178 27.9393C29.4914 28.9863 31.1761 28.9863 32.0497 27.9393L38.9243 19.7002C39.0469 19.5534 39.1441 19.3981 39.2176 19.2381C40.258 17.7536 40.8653 15.9838 40.8653 14.0659C40.8653 8.67313 36.0634 4.45088 30.3337 4.45088C24.6041 4.45088 19.8021 8.67313 19.8021 14.0659Z" fill="white" stroke="white" stroke-width="1.8"/>
<path d="M22.0893 14.0455C22.0893 15.6007 22.5666 17.038 23.3856 18.2457C23.4479 18.3821 23.5294 18.5146 23.6313 18.6403L28.9541 25.2017C29.7121 26.1361 31.181 26.1361 31.939 25.2017L37.2617 18.6403C37.3637 18.5146 37.4452 18.3821 37.5075 18.2457C38.3264 17.038 38.8038 15.6007 38.8038 14.0455C38.8038 9.65556 35.0001 6.20506 30.4465 6.20506C25.8929 6.20506 22.0893 9.65556 22.0893 14.0455Z" fill="white" stroke="#1A8BD7" stroke-width="1.8"/>
<circle cx="30.4462" cy="13.8172" r="3.13718" fill="white" stroke="#1A8BD7" stroke-width="1.8"/>
<path d="M25.456 46.96L24.664 46.312C24.488 46.368 24.224 46.4 23.912 46.4C23.056 46.4 19.984 46.4 19.48 46.4C19.2 46.4 18.768 46.36 18.552 46.32V47.448C18.72 47.424 19.152 47.384 19.48 47.384C20.088 47.384 23 47.384 23.704 47.384C23.288 48.12 22.392 49.208 21.336 49.944L22.136 50.68C23.376 49.768 24.56 48.328 25.184 47.296C25.248 47.2 25.344 47.088 25.456 46.96ZM21.24 50.8C21.76 51.328 22.432 52.08 22.76 52.528L23.704 51.776C23.32 51.312 22.688 50.648 22.16 50.136C21.552 49.552 20.752 48.904 20.32 48.576L19.48 49.264C19.952 49.6 20.768 50.328 21.24 50.8ZM30.032 47.256L29.088 47.568C29.28 47.984 29.632 48.952 29.736 49.336L30.688 49.008C30.576 48.64 30.184 47.592 30.032 47.256ZM32.984 47.832L31.864 47.472C31.776 48.48 31.384 49.544 30.84 50.216C30.184 51.048 29.064 51.656 28.192 51.896L29.032 52.752C29.968 52.392 30.96 51.728 31.704 50.76C32.248 50.064 32.592 49.232 32.8 48.424C32.848 48.264 32.896 48.096 32.984 47.832ZM28.176 47.672L27.216 48.024C27.408 48.368 27.816 49.44 27.944 49.864L28.92 49.504C28.768 49.056 28.376 48.08 28.176 47.672ZM40.584 46.136C40.584 45.88 40.792 45.672 41.048 45.672C41.304 45.672 41.512 45.88 41.512 46.136C41.512 46.392 41.304 46.6 41.048 46.6C40.792 46.6 40.584 46.392 40.584 46.136ZM40.088 46.136C40.088 46.664 40.52 47.096 41.048 47.096C41.576 47.096 42.008 46.664 42.008 46.136C42.008 45.608 41.576 45.176 41.048 45.176C40.52 45.176 40.088 45.608 40.088 46.136ZM41.064 46.768L40.272 46.264C40.064 46.32 39.808 46.328 39.648 46.328C39.2 46.328 36.544 46.328 35.944 46.328C35.68 46.328 35.232 46.288 34.992 46.256V47.392C35.2 47.376 35.576 47.352 35.944 47.352C36.544 47.352 39.184 47.352 39.672 47.352C39.568 48.04 39.264 48.952 38.728 49.616C38.088 50.424 37.184 51.12 35.592 51.488L36.464 52.448C37.896 51.992 38.96 51.2 39.68 50.24C40.352 49.352 40.704 48.104 40.888 47.32C40.928 47.152 40.984 46.92 41.064 46.768Z" fill="#1A8BD7"/>
</svg>
