<svg width="60" height="59" viewBox="0 0 60 59" fill="none" xmlns="http://www.w3.org/2000/svg">
<path d="M24.112 48.328V51.272H23.2V49.216H22.176V48.328H24.112ZM24.112 50.896C24.432 51.432 24.984 51.656 25.808 51.688C26.76 51.736 28.664 51.712 29.768 51.624C29.664 51.84 29.52 52.28 29.472 52.56C28.48 52.608 26.776 52.624 25.792 52.576C24.832 52.536 24.192 52.304 23.712 51.688C23.344 52 22.968 52.312 22.512 52.648L22.072 51.696C22.448 51.48 22.896 51.192 23.28 50.896H24.112ZM22.288 45.992L22.952 45.376C23.448 45.712 24.072 46.232 24.36 46.616L23.64 47.304C23.384 46.92 22.784 46.36 22.288 45.992ZM25.528 46.76L26.136 46.248C26.848 46.496 27.856 46.928 28.4 47.24L27.744 47.808C27.256 47.504 26.264 47.048 25.528 46.76ZM24.8 47.216H28.872V47.912H25.704V51.36H24.8V47.216ZM28.424 47.216H29.336V50.528C29.336 50.92 29.272 51.12 29.008 51.248C28.76 51.384 28.408 51.384 27.928 51.384C27.896 51.152 27.792 50.84 27.688 50.632C27.944 50.64 28.224 50.64 28.304 50.64C28.4 50.64 28.424 50.608 28.424 50.52V47.216ZM24.872 45.472H28.688V46.2H24.872V45.472ZM25.304 48.344H28.736V49.008H25.304V48.344ZM25.304 49.464H28.736V50.16H25.304V49.464ZM26.624 47.544H27.48V51.328H26.624V47.544ZM28.344 45.472H28.56L28.752 45.424L29.32 45.888C28.752 46.416 27.96 46.984 27.224 47.336C27.112 47.176 26.88 46.928 26.744 46.8C27.344 46.512 28.04 46.008 28.344 45.64V45.472ZM34.792 51.008H36.984V51.904H34.792V51.008ZM34.36 45.896H37.432V52.376H36.456V46.8H35.288V52.488H34.36V45.896ZM31.864 46.648H32.832V48.192C32.832 49.552 32.544 51.528 30.936 52.696C30.816 52.496 30.448 52.112 30.256 51.976C31.72 50.92 31.864 49.352 31.864 48.176V46.648ZM31.208 46.224H33.952V47.112H31.208V46.224ZM30.376 48.376H34.152V49.288H30.376V48.376ZM32.592 49.504C32.92 49.792 33.976 51 34.224 51.296L33.576 52.104C33.2 51.512 32.416 50.52 32.008 50.048L32.592 49.504ZM31.12 45.208L32.04 45.392C31.832 46.448 31.448 47.504 30.992 48.176C30.824 48.024 30.432 47.752 30.224 47.624C30.656 47.048 30.96 46.128 31.12 45.208Z" fill="#1A8BD7"/>
<rect x="10" width="40.6665" height="40.6665" fill="white"/>
<path d="M34.1 28.8338C34.1 31.0982 32.2644 32.9338 30 32.9338C27.7356 32.9338 25.9 31.0982 25.9 28.8338C25.9 26.5694 27.7356 24.7338 30 24.7338C32.2644 24.7338 34.1 26.5694 34.1 28.8338Z" stroke="#1A8BD7" stroke-width="1.8"/>
<path d="M35.6071 10.2414C39.4124 12.3189 41.034 15.9484 41 19.8338C40.9906 20.9057 42.0326 26.4106 42.3851 28.2411C42.4446 28.5502 42.2072 28.8338 41.8925 28.8338H18.809C18.4373 28.8338 18.157 28.4279 18.2513 28.0683C18.7845 26.034 19.5416 21.1532 19.5319 20.0533C19.4981 16.195 20.833 12.589 24.4333 10.5045C27.6537 8.64002 32.341 8.45822 35.6071 10.2414Z" fill="white" stroke="#1A8BD7" stroke-width="1.8" stroke-linecap="round"/>
</svg>
