<svg width="60" height="59" viewBox="0 0 60 59" fill="none" xmlns="http://www.w3.org/2000/svg">
<rect x="7.89453" width="40.6665" height="40.6665" fill="white"/>
<circle cx="28.6802" cy="13.5553" r="7.2333" fill="white" stroke="#1A8BD7" stroke-width="1.8"/>
<path d="M16.9316 32.5334C17.0767 28.6174 19.6294 20.7853 28.6797 20.7853" stroke="#1A8BD7" stroke-width="1.8" stroke-linecap="round"/>
<path d="M40.4277 32.5334C40.2827 28.6174 37.73 20.7853 28.6796 20.7853" stroke="#1A8BD7" stroke-width="1.8" stroke-linecap="round"/>
<path d="M17.3741 46.96L16.5821 46.312C16.4061 46.368 16.1421 46.4 15.8301 46.4C14.9741 46.4 11.9021 46.4 11.3981 46.4C11.1181 46.4 10.6861 46.36 10.4701 46.32V47.448C10.6381 47.424 11.0701 47.384 11.3981 47.384C12.0061 47.384 14.9181 47.384 15.6221 47.384C15.2061 48.12 14.3101 49.208 13.2541 49.944L14.0541 50.68C15.2941 49.768 16.4781 48.328 17.1021 47.296C17.1661 47.2 17.2621 47.088 17.3741 46.96ZM13.1581 50.8C13.6781 51.328 14.3501 52.08 14.6781 52.528L15.6221 51.776C15.2381 51.312 14.6061 50.648 14.0781 50.136C13.4701 49.552 12.6701 48.904 12.2381 48.576L11.3981 49.264C11.8701 49.6 12.6861 50.328 13.1581 50.8ZM18.4141 48.896L18.9101 49.904C20.1741 49.528 21.4701 48.928 22.3741 48.392C23.3181 47.824 24.2941 47.072 25.0221 46.336L24.1581 45.52C23.6381 46.152 22.7261 46.952 21.9101 47.456C21.0141 48.008 19.8461 48.528 18.4141 48.896ZM21.7421 47.976V51.312C21.7421 51.664 21.7101 52.168 21.6781 52.36H22.9501C22.8941 52.16 22.8781 51.664 22.8781 51.312V47.704L21.7421 47.976ZM31.8541 47.104C31.8541 46.824 32.0861 46.6 32.3661 46.6C32.6461 46.6 32.8701 46.824 32.8701 47.104C32.8701 47.384 32.6461 47.616 32.3661 47.616C32.0861 47.616 31.8541 47.384 31.8541 47.104ZM31.3261 47.104C31.3261 47.68 31.7901 48.144 32.3661 48.144C32.9421 48.144 33.4061 47.68 33.4061 47.104C33.4061 46.528 32.9421 46.064 32.3661 46.064C31.7901 46.064 31.3261 46.528 31.3261 47.104ZM26.3581 49.728L27.3181 50.72C27.4621 50.512 27.6461 50.224 27.8301 49.976C28.1581 49.536 28.7181 48.752 29.0381 48.344C29.2621 48.056 29.4301 48.04 29.6941 48.296C29.9821 48.592 30.6861 49.368 31.1581 49.92C31.6301 50.472 32.3021 51.304 32.8381 51.968L33.7261 51.016C33.1101 50.36 32.2861 49.48 31.7501 48.904C31.2701 48.384 30.6621 47.752 30.1181 47.24C29.5021 46.656 29.0301 46.744 28.5501 47.312C27.9981 47.968 27.3741 48.752 27.0141 49.112C26.7661 49.36 26.5901 49.528 26.3581 49.728ZM34.9661 48.296V49.56C35.2701 49.536 35.8061 49.512 36.2541 49.512C37.1981 49.512 39.8301 49.512 40.5581 49.512C40.8941 49.512 41.3021 49.552 41.4941 49.56V48.296C41.2781 48.312 40.9261 48.352 40.5501 48.352C39.8381 48.352 37.1981 48.352 36.2541 48.352C35.8381 48.352 35.2621 48.32 34.9661 48.296ZM48.0739 45.864L47.4019 46.136C47.6979 46.552 47.8739 46.896 48.1139 47.4L48.8019 47.096C48.6259 46.728 48.2979 46.2 48.0739 45.864ZM49.1779 45.472L48.4979 45.76C48.7939 46.16 48.9859 46.472 49.2419 46.976L49.9299 46.672C49.7379 46.32 49.4259 45.792 49.1779 45.472ZM44.6019 45.704L44.0179 46.584C44.5459 46.88 45.3859 47.424 45.8259 47.736L46.4259 46.848C46.0099 46.56 45.1299 45.992 44.6019 45.704ZM43.1219 51.384L43.7219 52.44C44.4259 52.312 45.5779 51.912 46.3859 51.448C47.6979 50.696 48.8259 49.68 49.5699 48.576L48.9539 47.488C48.3139 48.632 47.2019 49.728 45.8419 50.488C44.9699 50.968 44.0099 51.232 43.1219 51.384ZM43.3699 47.528L42.7859 48.416C43.3299 48.696 44.1539 49.24 44.6099 49.552L45.1939 48.656C44.7859 48.368 43.9059 47.816 43.3699 47.528Z" fill="#1A8BD7"/>
</svg>
