<svg width="60" height="59" viewBox="0 0 60 59" fill="none" xmlns="http://www.w3.org/2000/svg">
<rect x="9" width="40.6665" height="40.6665" fill="white"/>
<rect x="15.9" y="7.9" width="27.0947" height="24.9544" rx="4.1" fill="white" stroke="#333333" stroke-width="1.8"/>
<line x1="29.5102" y1="26.4333" x2="29.5102" y2="14.3211" stroke="#333333" stroke-width="1.8" stroke-linecap="round"/>
<line x1="23.3912" y1="20.4404" x2="35.5035" y2="20.4404" stroke="#333333" stroke-width="1.8" stroke-linecap="round"/>
<path d="M25.64 45.504V46.32C25.64 46.856 25.536 47.48 24.744 47.944C24.92 48.072 25.264 48.456 25.376 48.64C26.328 48.056 26.536 47.12 26.536 46.344V45.504H25.64ZM26.088 45.504V46.392H28.024V45.504H26.088ZM27.568 45.504V47.256C27.568 48.048 27.76 48.28 28.424 48.28C28.552 48.28 28.792 48.28 28.936 48.28C29.48 48.28 29.696 48.008 29.776 47.024C29.536 46.96 29.16 46.824 28.984 46.68C28.968 47.376 28.944 47.488 28.832 47.488C28.784 47.488 28.64 47.488 28.6 47.488C28.504 47.488 28.48 47.464 28.48 47.248V45.504H27.568ZM25.208 48.64V49.504H28.536V48.64H25.208ZM28.24 48.64V48.784C27.768 50.488 26.352 51.488 24.48 51.856C24.656 52.064 24.88 52.472 24.976 52.728C27.056 52.2 28.608 51.08 29.224 48.848L28.6 48.608L28.424 48.64H28.24ZM26.272 49.448L25.408 49.712C26.136 51.256 27.336 52.28 29.16 52.712C29.296 52.456 29.576 52.048 29.784 51.848C28.072 51.512 26.856 50.664 26.272 49.448ZM22.088 49.32L22.36 50.32C23.112 50.096 24.048 49.792 24.944 49.504L24.84 48.672C23.824 48.92 22.768 49.184 22.088 49.32ZM22.216 46.696V47.584H24.976V46.696H22.216ZM23.232 45.208V51.688C23.232 51.8 23.184 51.832 23.08 51.84C22.976 51.84 22.64 51.84 22.336 51.832C22.448 52.072 22.568 52.464 22.6 52.704C23.168 52.712 23.552 52.68 23.816 52.536C24.088 52.392 24.176 52.152 24.176 51.688V45.208H23.232ZM35.008 45.208V46.352H35.936V45.208H35.008ZM33.224 45.976V46.72H37.672V45.976H33.224ZM34.648 47.664H36.32V48.144H34.648V47.664ZM33.84 47.016V48.792H37.176V47.016H33.84ZM33.28 49.08V52.728H34.136V49.824H37.136V49.08H33.28ZM36.808 49.08V51.88C36.808 51.96 36.784 51.976 36.712 51.984C36.64 51.984 36.424 51.984 36.216 51.976C36.312 52.184 36.416 52.496 36.44 52.72C36.856 52.72 37.16 52.712 37.392 52.592C37.616 52.464 37.68 52.256 37.68 51.896V49.08H36.808ZM34.472 50.144V52.232H35.128V50.144H34.472ZM34.968 50.144V50.728H35.792V51.28H34.968V51.856H36.456V50.144H34.968ZM31.424 45.944V52.72H32.344V45.944H31.424ZM30.368 47.472V48.352H33.216V47.472H30.368ZM31.488 47.824C31.264 48.696 30.752 49.864 30.248 50.512C30.392 50.752 30.608 51.16 30.688 51.432C31.264 50.64 31.776 49.192 32.048 48.064L31.488 47.824ZM32.656 45.32C32.088 45.568 31.16 45.776 30.328 45.904C30.432 46.104 30.552 46.432 30.592 46.632C31.488 46.528 32.536 46.336 33.328 46.04L32.656 45.32ZM32.312 48.432L31.896 48.8C32.128 49.152 32.592 49.904 32.768 50.312L33.32 49.568C33.176 49.368 32.512 48.608 32.312 48.432Z" fill="#333333"/>
</svg>
